<svg xmlns="http://www.w3.org/2000/svg" width="172" height="72" fill="none" viewBox="0 0 172 72"><path fill="#F7F7F7" d="M21.2269 32C20.9776 31.184 20.6942 30.3453 20.3769 29.484C20.0822 28.6227 19.7876 27.7613 19.4929 26.9H10.3129C10.0182 27.7613 9.71223 28.6227 9.3949 29.484C9.10023 30.3453 8.82823 31.184 8.5789 32H3.0709C3.9549 29.4613 4.79356 27.1153 5.5869 24.962C6.38023 22.8087 7.1509 20.78 7.8989 18.876C8.66956 16.972 9.41756 15.17 10.1429 13.47C10.8909 11.7473 11.6616 10.07 12.4549 8.438H17.5209C18.2916 10.07 19.0509 11.7473 19.7989 13.47C20.5469 15.17 21.2949 16.972 22.0429 18.876C22.8136 20.78 23.5956 22.8087 24.3889 24.962C25.1822 27.1153 26.0209 29.4613 26.9049 32H21.2269ZM14.8689 13.776C14.7556 14.116 14.5856 14.5807 14.3589 15.17C14.1322 15.7593 13.8716 16.4393 13.5769 17.21C13.2822 17.9807 12.9536 18.8307 12.5909 19.76C12.2509 20.6893 11.8996 21.664 11.5369 22.684H18.2349C17.8722 21.664 17.5209 20.6893 17.1809 19.76C16.8409 18.8307 16.5122 17.9807 16.1949 17.21C15.9002 16.4393 15.6396 15.7593 15.4129 15.17C15.1862 14.5807 15.0049 14.116 14.8689 13.776ZM29.9748 14.728C30.8361 14.4787 31.9468 14.252 33.3068 14.048C34.6668 13.8213 36.0948 13.708 37.5908 13.708C39.1095 13.708 40.3675 13.912 41.3648 14.32C42.3848 14.7053 43.1895 15.2607 43.7788 15.986C44.3681 16.7113 44.7875 17.5727 45.0368 18.57C45.2861 19.5673 45.4108 20.678 45.4108 21.902V32H40.3448V22.514C40.3448 20.882 40.1295 19.726 39.6988 19.046C39.2681 18.366 38.4635 18.026 37.2848 18.026C36.9221 18.026 36.5368 18.0487 36.1288 18.094C35.7208 18.1167 35.3581 18.1507 35.0408 18.196V32H29.9748V14.728ZM65.703 14.116C64.683 17.5613 63.6177 20.7913 62.507 23.806C61.3964 26.8207 60.1837 29.7447 58.869 32.578C58.393 33.598 57.917 34.4593 57.441 35.162C56.965 35.8873 56.4437 36.4767 55.877 36.93C55.3104 37.406 54.6644 37.746 53.939 37.95C53.2364 38.1767 52.409 38.29 51.457 38.29C50.6637 38.29 49.927 38.2107 49.247 38.052C48.5897 37.916 48.0457 37.7573 47.615 37.576L48.499 33.53C49.0204 33.7113 49.485 33.836 49.893 33.904C50.301 33.972 50.7317 34.006 51.185 34.006C52.0917 34.006 52.783 33.7567 53.259 33.258C53.7577 32.782 54.177 32.1133 54.517 31.252C53.361 28.9853 52.205 26.4467 51.049 23.636C49.893 20.8027 48.805 17.6293 47.785 14.116H53.157C53.3837 15 53.6444 15.9633 53.939 17.006C54.2564 18.026 54.585 19.0687 54.925 20.134C55.265 21.1767 55.605 22.1967 55.945 23.194C56.3077 24.1913 56.6477 25.098 56.965 25.914C57.2597 25.098 57.5657 24.1913 57.883 23.194C58.2004 22.1967 58.5064 21.1767 58.801 20.134C59.1184 19.0687 59.413 18.026 59.685 17.006C59.9797 15.9633 60.2404 15 60.467 14.116H65.703ZM80.3229 21.732C79.8695 23.4547 79.3822 25.166 78.8609 26.866C78.3622 28.566 77.8295 30.2773 77.2629 32H73.3189C72.9109 31.048 72.4689 29.9147 71.9929 28.6C71.5169 27.2853 71.0182 25.8573 70.4969 24.316C69.9982 22.752 69.4769 21.1087 68.9329 19.386C68.4115 17.6407 67.9015 15.884 67.4029 14.116H72.7409C72.9222 14.932 73.1149 15.8273 73.3189 16.802C73.5455 17.754 73.7722 18.74 73.9989 19.76C74.2482 20.78 74.4975 21.8113 74.7469 22.854C75.0189 23.874 75.2909 24.86 75.5629 25.812C75.8575 24.8147 76.1409 23.7947 76.4129 22.752C76.7075 21.7093 76.9795 20.6893 77.2289 19.692C77.5009 18.672 77.7502 17.6973 77.9769 16.768C78.2262 15.816 78.4415 14.932 78.6229 14.116H82.2949C82.4762 14.932 82.6802 15.816 82.9069 16.768C83.1335 17.6973 83.3715 18.672 83.6209 19.692C83.8702 20.6893 84.1309 21.7093 84.4029 22.752C84.6749 23.7947 84.9582 24.8147 85.2529 25.812C85.5249 24.86 85.7969 23.874 86.0689 22.854C86.3409 21.8113 86.5902 20.78 86.8169 19.76C87.0662 18.74 87.2929 17.754 87.4969 16.802C87.7235 15.8273 87.9275 14.932 88.1089 14.116H93.3789C92.8802 15.884 92.3589 17.6407 91.8149 19.386C91.2935 21.1087 90.7722 22.752 90.2509 24.316C89.7522 25.8573 89.2535 27.2853 88.7549 28.6C88.2789 29.9147 87.8369 31.048 87.4289 32H83.4849C82.9182 30.2773 82.3629 28.566 81.8189 26.866C81.2749 25.166 80.7762 23.4547 80.3229 21.732ZM96.465 32V6.432L101.531 5.616V14.184C101.871 14.0707 102.302 13.9687 102.823 13.878C103.367 13.7647 103.888 13.708 104.387 13.708C105.838 13.708 107.039 13.912 107.991 14.32C108.966 14.7053 109.736 15.2607 110.303 15.986C110.892 16.7113 111.3 17.5727 111.527 18.57C111.776 19.5673 111.901 20.678 111.901 21.902V32H106.835V22.514C106.835 20.882 106.62 19.726 106.189 19.046C105.781 18.366 105.01 18.026 103.877 18.026C103.424 18.026 102.993 18.0713 102.585 18.162C102.2 18.23 101.848 18.3093 101.531 18.4V32H96.465ZM115.996 23.194C115.996 21.6073 116.234 20.2247 116.71 19.046C117.209 17.8447 117.855 16.8473 118.648 16.054C119.442 15.2607 120.348 14.66 121.368 14.252C122.411 13.844 123.476 13.64 124.564 13.64C127.103 13.64 129.109 14.422 130.582 15.986C132.056 17.5273 132.792 19.8053 132.792 22.82C132.792 23.1147 132.781 23.4433 132.758 23.806C132.736 24.146 132.713 24.452 132.69 24.724H121.198C121.312 25.7667 121.799 26.594 122.66 27.206C123.522 27.818 124.678 28.124 126.128 28.124C127.058 28.124 127.964 28.0447 128.848 27.886C129.755 27.7047 130.492 27.4893 131.058 27.24L131.738 31.354C131.466 31.49 131.104 31.626 130.65 31.762C130.197 31.898 129.687 32.0113 129.12 32.102C128.576 32.2153 127.987 32.306 127.352 32.374C126.718 32.442 126.083 32.476 125.448 32.476C123.839 32.476 122.434 32.238 121.232 31.762C120.054 31.286 119.068 30.64 118.274 29.824C117.504 28.9853 116.926 27.9993 116.54 26.866C116.178 25.7327 115.996 24.5087 115.996 23.194ZM127.896 21.256C127.874 20.8253 127.794 20.406 127.658 19.998C127.545 19.59 127.352 19.2273 127.08 18.91C126.831 18.5927 126.502 18.332 126.094 18.128C125.709 17.924 125.222 17.822 124.632 17.822C124.066 17.822 123.578 17.924 123.17 18.128C122.762 18.3093 122.422 18.5587 122.15 18.876C121.878 19.1933 121.663 19.5673 121.504 19.998C121.368 20.406 121.266 20.8253 121.198 21.256H127.896ZM147.84 18.604C147.387 18.4907 146.854 18.3773 146.242 18.264C145.63 18.128 144.973 18.06 144.27 18.06C143.953 18.06 143.567 18.094 143.114 18.162C142.683 18.2073 142.355 18.264 142.128 18.332V32H137.062V15.068C137.969 14.7507 139.034 14.456 140.258 14.184C141.505 13.8893 142.887 13.742 144.406 13.742C144.678 13.742 145.007 13.7647 145.392 13.81C145.777 13.8327 146.163 13.878 146.548 13.946C146.933 13.9913 147.319 14.0593 147.704 14.15C148.089 14.218 148.418 14.3087 148.69 14.422L147.84 18.604ZM150.584 23.194C150.584 21.6073 150.822 20.2247 151.298 19.046C151.796 17.8447 152.442 16.8473 153.236 16.054C154.029 15.2607 154.936 14.66 155.956 14.252C156.998 13.844 158.064 13.64 159.152 13.64C161.69 13.64 163.696 14.422 165.17 15.986C166.643 17.5273 167.38 19.8053 167.38 22.82C167.38 23.1147 167.368 23.4433 167.346 23.806C167.323 24.146 167.3 24.452 167.278 24.724H155.786C155.899 25.7667 156.386 26.594 157.248 27.206C158.109 27.818 159.265 28.124 160.716 28.124C161.645 28.124 162.552 28.0447 163.436 27.886C164.342 27.7047 165.079 27.4893 165.646 27.24L166.326 31.354C166.054 31.49 165.691 31.626 165.238 31.762C164.784 31.898 164.274 32.0113 163.708 32.102C163.164 32.2153 162.574 32.306 161.94 32.374C161.305 32.442 160.67 32.476 160.036 32.476C158.426 32.476 157.021 32.238 155.82 31.762C154.641 31.286 153.655 30.64 152.862 29.824C152.091 28.9853 151.513 27.9993 151.128 26.866C150.765 25.7327 150.584 24.5087 150.584 23.194ZM162.484 21.256C162.461 20.8253 162.382 20.406 162.246 19.998C162.132 19.59 161.94 19.2273 161.668 18.91C161.418 18.5927 161.09 18.332 160.682 18.128C160.296 17.924 159.809 17.822 159.22 17.822C158.653 17.822 158.166 17.924 157.758 18.128C157.35 18.3093 157.01 18.5587 156.738 18.876C156.466 19.1933 156.25 19.5673 156.092 19.998C155.956 20.406 155.854 20.8253 155.786 21.256H162.484Z"/><path fill="#CA1F3D" d="M28.9701 71V47.438H44.7461V51.892H34.2741V56.822H43.5901V61.276H34.2741V71H28.9701ZM53.5795 71H48.5135V53.116H53.5795V71ZM54.0555 47.948C54.0555 48.8773 53.7495 49.614 53.1375 50.158C52.5482 50.6793 51.8455 50.94 51.0295 50.94C50.2135 50.94 49.4995 50.6793 48.8875 50.158C48.2982 49.614 48.0035 48.8773 48.0035 47.948C48.0035 47.0187 48.2982 46.2933 48.8875 45.772C49.4995 45.228 50.2135 44.956 51.0295 44.956C51.8455 44.956 52.5482 45.228 53.1375 45.772C53.7495 46.2933 54.0555 47.0187 54.0555 47.948ZM58.5316 48.662L63.5976 47.846V53.116H69.6836V57.332H63.5976V63.622C63.5976 64.6873 63.779 65.5373 64.1416 66.172C64.527 66.8067 65.2863 67.124 66.4196 67.124C66.9636 67.124 67.519 67.0787 68.0856 66.988C68.675 66.8747 69.2076 66.7273 69.6836 66.546L70.3976 70.49C69.7856 70.7393 69.1056 70.9547 68.3576 71.136C67.6096 71.3173 66.6916 71.408 65.6036 71.408C64.221 71.408 63.0763 71.2267 62.1696 70.864C61.263 70.4787 60.5376 69.9573 59.9936 69.3C59.4496 68.62 59.0643 67.804 58.8376 66.852C58.6336 65.9 58.5316 64.846 58.5316 63.69V48.662ZM74.1691 53.728C75.0304 53.4787 76.1411 53.252 77.5011 53.048C78.8611 52.8213 80.2891 52.708 81.7851 52.708C83.3037 52.708 84.5617 52.912 85.5591 53.32C86.5791 53.7053 87.3837 54.2607 87.9731 54.986C88.5624 55.7113 88.9817 56.5727 89.2311 57.57C89.4804 58.5673 89.6051 59.678 89.6051 60.902V71H84.5391V61.514C84.5391 59.882 84.3237 58.726 83.8931 58.046C83.4624 57.366 82.6577 57.026 81.4791 57.026C81.1164 57.026 80.7311 57.0487 80.3231 57.094C79.9151 57.1167 79.5524 57.1507 79.2351 57.196V71H74.1691V53.728ZM93.7005 62.194C93.7005 60.6073 93.9385 59.2247 94.4145 58.046C94.9132 56.8447 95.5592 55.8473 96.3525 55.054C97.1459 54.2607 98.0525 53.66 99.0725 53.252C100.115 52.844 101.181 52.64 102.269 52.64C104.807 52.64 106.813 53.422 108.287 54.986C109.76 56.5273 110.497 58.8053 110.497 61.82C110.497 62.1147 110.485 62.4433 110.463 62.806C110.44 63.146 110.417 63.452 110.395 63.724H98.9025C99.0159 64.7667 99.5032 65.594 100.365 66.206C101.226 66.818 102.382 67.124 103.833 67.124C104.762 67.124 105.669 67.0447 106.553 66.886C107.459 66.7047 108.196 66.4893 108.763 66.24L109.443 70.354C109.171 70.49 108.808 70.626 108.355 70.762C107.901 70.898 107.391 71.0113 106.825 71.102C106.281 71.2153 105.691 71.306 105.057 71.374C104.422 71.442 103.787 71.476 103.153 71.476C101.543 71.476 100.138 71.238 98.9365 70.762C97.7579 70.286 96.7719 69.64 95.9785 68.824C95.2079 67.9853 94.6299 66.9993 94.2445 65.866C93.8819 64.7327 93.7005 63.5087 93.7005 62.194ZM105.601 60.256C105.578 59.8253 105.499 59.406 105.363 58.998C105.249 58.59 105.057 58.2273 104.785 57.91C104.535 57.5927 104.207 57.332 103.799 57.128C103.413 56.924 102.926 56.822 102.337 56.822C101.77 56.822 101.283 56.924 100.875 57.128C100.467 57.3093 100.127 57.5587 99.8545 57.876C99.5825 58.1933 99.3672 58.5673 99.2085 58.998C99.0725 59.406 98.9705 59.8253 98.9025 60.256H105.601ZM119.9 67.362C120.829 67.362 121.487 67.2713 121.872 67.09C122.257 66.9087 122.45 66.5573 122.45 66.036C122.45 65.628 122.201 65.2767 121.702 64.982C121.203 64.6647 120.444 64.3133 119.424 63.928C118.631 63.6333 117.905 63.3273 117.248 63.01C116.613 62.6927 116.069 62.3187 115.616 61.888C115.163 61.4347 114.811 60.902 114.562 60.29C114.313 59.678 114.188 58.9413 114.188 58.08C114.188 56.4027 114.811 55.0767 116.058 54.102C117.305 53.1273 119.016 52.64 121.192 52.64C122.28 52.64 123.323 52.742 124.32 52.946C125.317 53.1273 126.111 53.3313 126.7 53.558L125.816 57.502C125.227 57.298 124.581 57.1167 123.878 56.958C123.198 56.7993 122.427 56.72 121.566 56.72C119.979 56.72 119.186 57.162 119.186 58.046C119.186 58.25 119.22 58.4313 119.288 58.59C119.356 58.7487 119.492 58.9073 119.696 59.066C119.9 59.202 120.172 59.3607 120.512 59.542C120.875 59.7007 121.328 59.882 121.872 60.086C122.983 60.494 123.901 60.902 124.626 61.31C125.351 61.6953 125.918 62.126 126.326 62.602C126.757 63.0553 127.051 63.5653 127.21 64.132C127.391 64.6987 127.482 65.356 127.482 66.104C127.482 67.872 126.813 69.2093 125.476 70.116C124.161 71.0227 122.291 71.476 119.866 71.476C118.279 71.476 116.953 71.34 115.888 71.068C114.845 70.796 114.12 70.5693 113.712 70.388L114.562 66.274C115.423 66.614 116.307 66.886 117.214 67.09C118.121 67.2713 119.016 67.362 119.9 67.362ZM136.762 67.362C137.691 67.362 138.349 67.2713 138.734 67.09C139.119 66.9087 139.312 66.5573 139.312 66.036C139.312 65.628 139.063 65.2767 138.564 64.982C138.065 64.6647 137.306 64.3133 136.286 63.928C135.493 63.6333 134.767 63.3273 134.11 63.01C133.475 62.6927 132.931 62.3187 132.478 61.888C132.025 61.4347 131.673 60.902 131.424 60.29C131.175 59.678 131.05 58.9413 131.05 58.08C131.05 56.4027 131.673 55.0767 132.92 54.102C134.167 53.1273 135.878 52.64 138.054 52.64C139.142 52.64 140.185 52.742 141.182 52.946C142.179 53.1273 142.973 53.3313 143.562 53.558L142.678 57.502C142.089 57.298 141.443 57.1167 140.74 56.958C140.06 56.7993 139.289 56.72 138.428 56.72C136.841 56.72 136.048 57.162 136.048 58.046C136.048 58.25 136.082 58.4313 136.15 58.59C136.218 58.7487 136.354 58.9073 136.558 59.066C136.762 59.202 137.034 59.3607 137.374 59.542C137.737 59.7007 138.19 59.882 138.734 60.086C139.845 60.494 140.763 60.902 141.488 61.31C142.213 61.6953 142.78 62.126 143.188 62.602C143.619 63.0553 143.913 63.5653 144.072 64.132C144.253 64.6987 144.344 65.356 144.344 66.104C144.344 67.872 143.675 69.2093 142.338 70.116C141.023 71.0227 139.153 71.476 136.728 71.476C135.141 71.476 133.815 71.34 132.75 71.068C131.707 70.796 130.982 70.5693 130.574 70.388L131.424 66.274C132.285 66.614 133.169 66.886 134.076 67.09C134.983 67.2713 135.878 67.362 136.762 67.362Z"/></svg>